<svg xmlns="http://www.w3.org/2000/svg" xmlns:xlink="http://www.w3.org/1999/xlink" width="2048" height="2048" viewBox="0 0 2048 2048">
  <defs>
    <style>
      .cls-1 {
        stroke-width: 1px;
        fill-rule: evenodd;
        fill: url(#linear-gradient);
        stroke: url(#linear-gradient-2);
      }
    </style>
    <linearGradient id="linear-gradient" x1="1741.013" x2="306.987" y2="2048" gradientUnits="userSpaceOnUse">
      <stop offset="0" stop-color="#0bbafb"/>
      <stop offset="1" stop-color="#4285ec"/>
    </linearGradient>
    <linearGradient id="linear-gradient-2" x1="1741.013" x2="306.987" y2="2048" gradientUnits="userSpaceOnUse">
      <stop offset="0" stop-color="#015eea"/>
      <stop offset="1" stop-color="#00c0fa"/>
    </linearGradient>
  </defs>
  <path class="cls-1" d="M75,0H925a75,75,0,0,1,75,75V925a75,75,0,0,1-75,75H75A75,75,0,0,1,0,925V75A75,75,0,0,1,75,0Zm0,1048H1973a75,75,0,0,1,75,75v850a75,75,0,0,1-75,75H75a75,75,0,0,1-75-75V1123A75,75,0,0,1,75,1048ZM1123,525h325a75,75,0,0,1,75,75V925a75,75,0,0,1-75,75H1123a75,75,0,0,1-75-75V600A75,75,0,0,1,1123,525Zm523,0h325a75,75,0,0,1,75,75V925a75,75,0,0,1-75,75H1646a75,75,0,0,1-75-75V600A75,75,0,0,1,1646,525ZM1123,0h325a75,75,0,0,1,75,75V400a75,75,0,0,1-75,75H1123a75,75,0,0,1-75-75V75A75,75,0,0,1,1123,0Zm525,0h325a75,75,0,0,1,75,75V400a75,75,0,0,1-75,75H1648a75,75,0,0,1-75-75V75A75,75,0,0,1,1648,0Z"/>
</svg>
